General


Format                           : MPEG-4
Format profile                   : Base Media
Codec ID                         : isom
File size                        : 62.9 MiB
Duration                         : 3mn 0s
Overall bit rate                 : 2 917 Kbps
Encoded date                     : UTC 2012-03-03 16:35:07
Tagged date                      : UTC 2012-03-03 16:35:07

Video
ID                               : 1
Format                           : AVC
Format/Info                      : Advanced Video Codec
Format profile                   : High@L3.0
Format settings, CABAC           : Yes
Format settings, ReFrames        : 2 frames
Codec ID                         : avc1
Codec ID/Info                    : Advanced Video Coding
Duration                         : 3mn 0s
Bit rate mode                    : Variable
Bit rate                         : 2 881 Kbps
Maximum bit rate                 : 11.0 Mbps
Width                            : 720 pixels
Height                           : 480 pixels
Display aspect ratio             : 4:3
Original display aspect ratio    : 4:3
Frame rate mode                  : Constant
Frame rate                       : 29.970 fps
Standard                         : NTSC
Color space                      : YUV
Chroma subsampling               : 4:2:0
Bit depth                        : 8 bits
Scan type                        : Progressive
Bits/(Pixel*Frame)               : 0.278
Stream size                      : 61.1 MiB (97%)


Audio
ID                               : 2
Format                           : AAC
Format/Info                      : Advanced Audio Codec
Format profile                   : LC
Codec ID                         : 40
Duration                         : 3mn 0s
Bit rate mode                    : Variable
Bit rate                         : 72.0 Kbps
Maximum bit rate                 : 79.8 Kbps
Channel(s)                       : 2 channels
Channel positions                : Front: L R
Sampling rate                    : 48.0 KHz
Compression mode                 : Lossy
Stream size                      : 1.58 MiB (3%)

